HIERARCHY
ROOT Hips
{
    OFFSET 0.000000 0.000000 0.000000
    CHANNELS 6 Xposition Yposition Zposition Zrotation Xrotation Yrotation
    JOINT Spine
    {
        OFFSET -0.000000 14.517291 0.000000
        CHANNELS 3 Zrotation Xrotation Yrotation
        JOINT Spine1
        {
            OFFSET -0.000000 37.558300 0.000000
            CHANNELS 3 Zrotation Xrotation Yrotation
            JOINT Neck
            {
                OFFSET -0.000000 37.404057 3.400369
                CHANNELS 3 Zrotation Xrotation Yrotation
                JOINT Head
                {
                    OFFSET -0.000000 24.785618 -3.540803
                    CHANNELS 3 Zrotation Xrotation Yrotation
                    End Site
                    {
                        OFFSET -0.000000 35.408028 0.000000
                    }
                }
            }
            JOINT LeftShoulder
            {
                OFFSET 6.992933 33.973492 -0.192664
                CHANNELS 3 Zrotation Xrotation Yrotation
                JOINT LeftArm
                {
                    OFFSET 21.527611 0.000000 0.000000
                    CHANNELS 3 Zrotation Xrotation Yrotation
                    JOINT LeftForeArm
                    {
                        OFFSET 56.353916 0.000000 0.000000
                        CHANNELS 3 Zrotation Xrotation Yrotation
                        JOINT LeftHand
                        {
                            OFFSET 47.774071 0.000000 0.000000
                            CHANNELS 3 Zrotation Xrotation Yrotation
                            End Site
                            {
                                OFFSET 26.556021 0.000000 0.000000
                            }
                        }
                    }
                }
            }
            JOINT RightShoulder
            {
                OFFSET -7.065357 33.973492 -0.192664
                CHANNELS 3 Zrotation Xrotation Yrotation
                JOINT RightArm
                {
                    OFFSET -21.527611 0.000000 0.000000
                    CHANNELS 3 Zrotation Xrotation Yrotation
                    JOINT RightForeArm
                    {
                        OFFSET -56.353916 0.000000 0.000000
                        CHANNELS 3 Zrotation Xrotation Yrotation
                        JOINT RightHand
                        {
                            OFFSET -47.774071 0.000000 0.000000
                            CHANNELS 3 Zrotation Xrotation Yrotation
                            End Site
                            {
                                OFFSET -26.556021 0.000000 0.000000
                            }
                        }
                    }
                }
            }
        }
    }
    JOINT LeftUpLeg
    {
        OFFSET 17.704014 0.000000 0.000000
        CHANNELS 3 Zrotation Xrotation Yrotation
        JOINT LeftLeg
        {
            OFFSET -0.000000 -81.181816 0.000000
            CHANNELS 3 Zrotation Xrotation Yrotation
            JOINT LeftFoot
            {
                OFFSET -0.000000 -62.821102 0.000000
                CHANNELS 3 Zrotation Xrotation Yrotation
                JOINT LeftToeBase
                {
                    OFFSET -0.000000 -11.507608 26.556021
                    CHANNELS 3 Zrotation Xrotation Yrotation
                    End Site
                    {
                        OFFSET -0.000000 0.000000 7.081605
                    }
                }
            }
        }
    }
    JOINT RightUpLeg
    {
        OFFSET -17.704014 0.000000 0.000000
        CHANNELS 3 Zrotation Xrotation Yrotation
        JOINT RightLeg
        {
            OFFSET -0.000000 -81.181816 0.000000
            CHANNELS 3 Zrotation Xrotation Yrotation
            JOINT RightFoot
            {
                OFFSET -0.000000 -62.821102 0.000000
                CHANNELS 3 Zrotation Xrotation Yrotation
                JOINT RightToeBase
                {
                    OFFSET -0.000000 -11.507608 26.556021
                    CHANNELS 3 Zrotation Xrotation Yrotation
                    End Site
                    {
                        OFFSET -0.000000 0.000000 7.081605
                    }
                }
            }
        }
    }
}
MOTION
Frames:    12
Frame Time:    0.008333
20.524748    153.580017    -106.049706    0.324128    -7.358004    40.457039    -2.920649    0.954278    -0.971649    -2.191197    2.815495    -0.278966    2.383262    2.688699    -17.920694    16.718689    6.200483    -17.564167    4.966796    7.958407    -18.144491    -27.524389    22.149561    -52.744072    -4.643473    -8.026333    -106.588669    7.544957    -14.776358    -9.867397    -5.479341    1.755427    -1.389754    18.035816    -3.856445    42.563038    -10.594286    -18.249472    -2.001908    10.617767    -15.710138    29.871349    17.245485    -2.537699    -0.107152    -15.821725    40.367378    -17.032045    9.316811    -30.211128    45.599613    0.000000    0.000000    0.000000    -19.108286    -15.868979    -13.542646    13.168190    32.580547    -14.093204    7.195121    1.312830    -17.990311    0.000000    0.000000    0.000000    
20.520424    153.574356    -106.048874    0.307375    -7.349593    40.463165    -2.909282    0.948009    -0.978320    -2.198893    2.803900    -0.281102    2.385550    2.672189    -17.923710    16.724928    6.215869    -17.569746    4.984456    7.958251    -18.144022    -27.519331    22.154421    -52.748165    -4.627698    -8.048418    -106.595802    7.547371    -14.777899    -9.863342    -5.473357    1.760133    -1.401301    18.032627    -3.869435    42.571953    -10.609963    -18.291256    -1.968504    10.667912    -15.736742    29.871712    17.265074    -2.572815    -0.110244    -15.851954    40.394947    -17.023083    9.316401    -30.216322    45.604645    0.000000    0.000000    0.000000    -19.102684    -15.887973    -13.550923    13.165306    32.591679    -14.068780    7.193237    1.307765    -18.011835    0.000000    0.000000    0.000000    
20.516260    153.567261    -106.049301    0.291838    -7.344561    40.472679    -2.905810    0.946709    -0.987379    -2.184110    2.790353    -0.284648    2.371736    2.675168    -17.919697    16.750710    6.197200    -17.558796    4.978446    7.944309    -18.150229    -27.515577    22.173138    -52.736622    -4.625640    -8.076592    -106.608368    7.552547    -14.804727    -9.868412    -5.483388    1.757130    -1.406569    18.005646    -3.824493    42.559532    -10.657000    -18.371077    -1.909692    10.714351    -15.800922    29.873953    17.287289    -2.603646    -0.125710    -15.895314    40.415302    -16.997242    9.337850    -30.204491    45.607723    0.000000    0.000000    0.000000    -19.097410    -15.902442    -13.560202    13.160884    32.604191    -14.068144    7.204402    1.297510    -18.006119    0.000000    0.000000    0.000000    
20.512691    153.559113    -106.046761    0.277357    -7.348297    40.484905    -2.891859    0.948247    -0.998954    -2.182887    2.784586    -0.288708    2.371192    2.681082    -17.920710    16.768570    6.172338    -17.554483    4.987506    7.934381    -18.147373    -27.511959    22.187254    -52.741905    -4.605054    -8.110313    -106.609375    7.564886    -14.810680    -9.849366    -5.482838    1.756555    -1.412089    18.003134    -3.827739    42.554878    -10.688825    -18.433149    -1.832831    10.770021    -15.843861    29.865423    17.312044    -2.626840    -0.136637    -15.921915    40.439453    -16.990160    9.336762    -30.220703    45.608921    0.000000    0.000000    0.000000    -19.088331    -15.908859    -13.547492    13.176704    32.611835    -14.076006    7.218691    1.285554    -18.041134    0.000000    0.000000    0.000000    
20.511654    153.552719    -106.044029    0.272023    -7.351685    40.504139    -2.884528    0.949296    -1.014818    -2.186330    2.787553    -0.293908    2.385270    2.685867    -17.921108    16.773865    6.142800    -17.551743    5.003275    7.935610    -18.155560    -27.509312    22.178408    -52.740353    -4.596914    -8.127333    -106.618729    7.587883    -14.819503    -9.846615    -5.465206    1.747652    -1.402555    17.987795    -3.822127    42.527748    -10.745407    -18.510262    -1.734874    10.869305    -15.886335    29.886059    17.331711    -2.637672    -0.147358    -15.953812    40.445686    -16.978760    9.361624    -30.214441    45.608860    0.000000    0.000000    0.000000    -19.086946    -15.906413    -13.546467    13.184244    32.622101    -14.067376    7.215948    1.269911    -18.052500    0.000000    0.000000    0.000000    
20.509642    153.548004    -106.043747    0.269463    -7.354388    40.515305    -2.882583    0.957926    -1.025869    -2.181902    2.786263    -0.297754    2.391136    2.697446    -17.924011    16.786200    6.095826    -17.547297    5.002568    7.925558    -18.148802    -27.501499    22.182949    -52.743092    -4.595845    -8.134873    -106.616524    7.610133    -14.827312    -9.853188    -5.451678    1.749116    -1.418463    18.066170    -3.960560    42.553715    -10.756676    -18.531761    -1.615804    10.882322    -15.888412    29.944387    17.343204    -2.635338    -0.147107    -15.960516    40.436993    -16.996099    9.371217    -30.224941    45.616489    0.000000    0.000000    0.000000    -19.088472    -15.909081    -13.535822    13.200170    32.633808    -14.070138    7.205180    1.267479    -18.058119    0.000000    0.000000    0.000000    
20.510366    153.545166    -106.044960    0.278190    -7.352562    40.530910    -2.897192    0.961066    -1.036232    -2.170881    2.797673    -0.301316    2.391993    2.699998    -17.923780    16.805067    6.069652    -17.541630    5.006004    7.921545    -18.148087    -27.493759    22.175465    -52.758938    -4.583451    -8.148174    -106.602219    7.638756    -14.824298    -9.844976    -5.440695    1.746753    -1.427165    18.057880    -3.944577    42.545490    -10.854433    -18.635738    -1.478018    10.967170    -15.958860    29.962259    17.336292    -2.631160    -0.123067    -15.939047    40.433712    -17.013760    9.370763    -30.223614    45.597912    0.000000    0.000000    0.000000    -19.105009    -15.905463    -13.527709    13.220497    32.641781    -14.083173    7.210068    1.259173    -18.084862    0.000000    0.000000    0.000000    
20.509190    153.546066    -106.043991    0.293099    -7.351569    40.544956    -2.914711    0.968215    -1.046220    -2.164362    2.811204    -0.304640    2.389214    2.699319    -17.926916    16.829931    6.047082    -17.539124    5.007470    7.919812    -18.152353    -27.490587    22.165514    -52.752415    -4.594644    -8.152313    -106.605591    7.641021    -14.843197    -9.839378    -5.415874    1.752015    -1.441706    18.141727    -4.108683    42.567944    -10.866100    -18.640253    -1.318806    10.992281    -15.935724    30.030588    17.324917    -2.614131    -0.093763    -15.902077    40.415344    -17.059607    9.368834    -30.220280    45.589417    0.000000    0.000000    0.000000    -19.124565    -15.894547    -13.509598    13.255213    32.642651    -14.090359    7.208994    1.245776    -18.124218    0.000000    0.000000    0.000000    
20.505718    153.547104    -106.049240    0.302408    -7.338225    40.554165    -2.928595    0.965788    -1.053042    -2.170716    2.819466    -0.306560    2.383711    2.705548    -17.933096    16.869627    6.024849    -17.538126    5.013018    7.920668    -18.151409    -27.490314    22.151667    -52.756271    -4.581799    -8.160889    -106.583305    7.600230    -14.830153    -9.857204    -5.386077    1.758009    -1.443719    18.228054    -4.282457    42.579971    -10.880665    -18.633583    -1.153075    10.988471    -15.908388    30.096558    17.307182    -2.615360    -0.055978    -15.859391    40.409836    -17.105856    9.352578    -30.224489    45.570625    0.000000    0.000000    0.000000    -19.141422    -15.898939    -13.510688    13.263684    32.640919    -14.124100    7.191481    1.247836    -18.109905    0.000000    0.000000    0.000000    
20.501787    153.552704    -106.050705    0.315056    -7.329639    40.567192    -2.952242    0.958096    -1.059197    -2.160489    2.845975    -0.308471    2.398212    2.690313    -17.937727    16.856716    6.017793    -17.545214    5.014465    7.917756    -18.158878    -27.476078    22.149189    -52.762764    -4.595778    -8.169163    -106.574150    7.648438    -14.858794    -9.848452    -5.359694    1.771534    -1.465280    18.288395    -4.416656    42.608089    -10.925249    -18.678780    -0.955409    11.005876    -15.928119    30.135174    17.288353    -2.612914    -0.025953    -15.812232    40.402378    -17.152559    9.318266    -30.222557    45.553398    0.000000    0.000000    0.000000    -19.155579    -15.891847    -13.522633    13.260344    32.637638    -14.120601    7.179048    1.245594    -18.107862    0.000000    0.000000    0.000000    
20.495380    153.561218    -106.055817    0.321276    -7.319934    40.576092    -2.966979    0.956497    -1.064890    -2.156894    2.850194    -0.310271    2.394204    2.688169    -17.946264    16.867332    6.023289    -17.553659    5.019491    7.920226    -18.168823    -27.487375    22.132498    -52.751194    -4.614653    -8.149006    -106.568047    7.649974    -14.862723    -9.844398    -5.336972    1.771119    -1.469938    18.345798    -4.497151    42.618832    -10.975750    -18.808630    -0.681548    10.766734    -16.095306    30.157921    17.276960    -2.615932    -0.027230    -15.805787    40.384514    -17.149834    9.314251    -30.197479    45.542412    0.000000    0.000000    0.000000    -19.163752    -15.889535    -13.526464    13.262542    32.624962    -14.144059    7.172523    1.252172    -18.096792    0.000000    0.000000    0.000000    
20.489218    153.565796    -106.061951    0.325490    -7.306494    40.588379    -2.983932    0.953633    -1.077137    -2.144166    2.849132    -0.314857    2.384842    2.684915    -17.945444    16.871622    6.034800    -17.553028    5.017934    7.926744    -18.174011    -27.483332    22.140551    -52.746243    -4.613718    -8.168242    -106.561623    7.667638    -14.880810    -9.837352    -5.323441    1.800091    -1.486474    18.371325    -4.530539    42.646606    -11.102309    -18.867662    -0.455028    10.745608    -16.145912    30.100414    17.264191    -2.635471    -0.029288    -15.800278    40.392513    -17.158535    9.310638    -30.183479    45.543285    0.000000    0.000000    0.000000    -19.170996    -15.890079    -13.546361    13.237623    32.619045    -14.111697    7.181920    1.242438    -18.105608    0.000000    0.000000    0.000000    
